<svg width="3938" height="2475" xmlns="http://www.w3.org/2000/svg" xmlns:xlink="http://www.w3.org/1999/xlink" overflow="hidden"><defs><clipPath id="clip0"><rect x="231" y="0" width="3938" height="2475"/></clipPath><clipPath id="clip1"><rect x="621" y="818" width="3158" height="639"/></clipPath><clipPath id="clip2"><rect x="621" y="818" width="3158" height="639"/></clipPath><clipPath id="clip3"><rect x="621" y="818" width="3158" height="639"/></clipPath></defs><g clip-path="url(#clip0)" transform="translate(-231 0)"><path d="M590.306 824.765 401.676 824.765 401.676 1409.06 324.614 1409.06 324.614 824.765 137.134 824.765 137.134 755.754 590.306 755.754 590.306 824.765ZM945.713 942.084 730.629 1483.82C692.673 1580.44 638.614 1628.74 569.603 1628.74 550.05 1628.74 533.947 1626.44 521.295 1622.99L521.295 1556.28C537.398 1562.03 552.35 1564.33 565.002 1564.33 602.958 1564.33 630.563 1541.33 650.116 1496.47L686.922 1407.91 505.193 942.084 588.006 942.084 714.526 1300.94C715.676 1305.54 719.127 1317.04 723.728 1336.6L726.028 1336.6C727.178 1329.7 730.629 1318.19 735.229 1302.09L867.501 942.084 945.713 942.084 945.713 942.084ZM1067.63 1341.2 1065.33 1341.2 1065.33 1622.99 990.57 1622.99 990.57 942.084 1065.33 942.084 1065.33 1023.75 1067.63 1023.75C1104.44 961.637 1158.5 930.582 1228.66 930.582 1288.47 930.582 1335.63 951.285 1368.98 992.692 1402.34 1034.1 1419.59 1090.46 1419.59 1160.62 1419.59 1238.83 1400.04 1300.94 1362.08 1348.1 1324.12 1395.26 1272.37 1418.26 1206.8 1418.26 1148.15 1420.56 1100.99 1394.11 1067.63 1341.2L1067.63 1341.2ZM1066.48 1153.72 1066.48 1219.28C1066.48 1258.38 1079.13 1290.59 1104.44 1317.04 1129.74 1343.5 1160.8 1357.3 1199.9 1357.3 1244.76 1357.3 1280.42 1340.05 1306.87 1305.54 1332.17 1271.04 1344.83 1222.73 1344.83 1160.62 1344.83 1108.86 1333.32 1067.45 1309.17 1038.7 1285.02 1008.79 1252.81 994.992 1211.41 994.992 1167.7 994.992 1133.19 1009.94 1106.74 1039.85 1079.13 1069.75 1066.48 1107.71 1066.48 1153.72L1066.48 1153.72ZM1877.36 1193.97 1548.41 1193.97C1549.56 1245.73 1563.36 1285.99 1589.82 1314.74 1616.27 1343.5 1653.08 1357.3 1700.23 1357.3 1753.14 1357.3 1801.45 1340.05 1845.16 1305.54L1845.16 1375.7C1803.75 1405.61 1749.69 1420.56 1682.98 1420.56 1617.42 1420.56 1565.66 1399.86 1527.71 1357.3 1489.75 1314.74 1471.35 1254.93 1471.35 1179.02 1471.35 1106.56 1492.05 1046.75 1533.46 1001.89 1574.86 955.886 1625.47 932.882 1686.43 932.882 1747.39 932.882 1794.55 952.435 1827.9 992.692 1861.26 1031.8 1878.51 1087.01 1878.51 1157.17L1877.36 1193.97 1877.36 1193.97ZM1800.3 1130.71C1800.3 1087.01 1789.95 1053.65 1769.24 1029.5 1748.54 1005.34 1719.79 993.842 1684.13 993.842 1648.48 993.842 1618.57 1006.49 1594.42 1031.8 1570.26 1057.1 1554.16 1090.46 1548.41 1130.71L1800.3 1130.71ZM1914.17 1386.05 1914.17 1334.3C1961.33 1364.2 2008.48 1379.15 2056.79 1379.15 2107.4 1379.15 2146.5 1368.8 2172.96 1346.95 2199.41 1325.09 2212.07 1296.34 2212.07 1258.38 2212.07 1225.03 2202.86 1198.57 2185.61 1177.87 2168.36 1158.32 2129.25 1130.71 2070.59 1096.21 2003.88 1057.1 1962.48 1024.9 1945.22 999.593 1927.97 973.139 1918.77 943.234 1918.77 909.879 1918.77 863.871 1937.17 824.765 1972.83 792.56 2008.48 760.355 2056.79 744.252 2116.6 744.252 2155.71 744.252 2194.81 751.153 2232.77 763.805L2232.77 810.963C2194.81 793.71 2153.41 784.509 2109.7 784.509 2064.84 784.509 2030.34 796.01 2003.88 817.864 1977.43 840.867 1964.78 868.472 1964.78 902.977 1964.78 936.333 1973.98 962.787 1991.23 982.34 2008.48 1001.89 2047.59 1029.5 2106.25 1062.85 2167.21 1097.36 2207.46 1128.41 2228.17 1154.87 2248.87 1181.32 2258.07 1212.38 2258.07 1248.03 2258.07 1298.64 2240.82 1338.9 2206.31 1371.1 2171.81 1403.31 2122.35 1418.26 2059.09 1418.26 2036.09 1418.26 2010.78 1414.81 1980.88 1407.91 1950.97 1401.01 1929.12 1395.26 1914.17 1386.05L1914.17 1386.05ZM2646.83 1388.35C2612.33 1409.06 2570.92 1420.56 2522.61 1420.56 2459.35 1420.56 2407.6 1398.71 2368.49 1355 2329.38 1311.29 2309.83 1254.93 2309.83 1183.62 2309.83 1110.01 2331.68 1049.05 2375.39 1001.89 2419.1 954.736 2475.46 930.582 2544.47 930.582 2580.12 930.582 2614.63 937.483 2647.98 952.435L2647.98 999.593C2614.63 978.89 2577.82 968.538 2538.72 968.538 2483.51 968.538 2439.8 988.091 2405.3 1027.2 2370.79 1066.3 2354.69 1118.06 2354.69 1180.17 2354.69 1241.13 2370.79 1289.44 2401.85 1326.24 2432.9 1363.05 2474.31 1381.45 2524.92 1381.45 2572.07 1381.45 2612.33 1368.8 2646.83 1344.65L2646.83 1388.35 2646.83 1388.35ZM2925.18 985.791C2911.38 975.439 2895.27 970.838 2875.72 970.838 2838.92 970.838 2807.86 990.391 2783.71 1028.35 2758.4 1066.3 2746.9 1120.36 2746.9 1190.52L2746.9 1410.21 2705.49 1410.21 2705.49 942.084 2746.9 942.084 2746.9 1045.6 2749.2 1045.6C2759.55 1009.94 2776.81 982.34 2799.81 962.787 2822.81 943.234 2849.27 932.882 2880.32 932.882 2897.57 932.882 2913.68 935.183 2926.33 940.934L2926.33 985.791 2925.18 985.791 2925.18 985.791ZM2991.89 824.765C2982.69 824.765 2974.64 821.314 2967.74 814.413 2960.83 807.512 2957.38 799.461 2957.38 789.109 2957.38 778.758 2960.83 770.706 2967.74 764.955 2974.64 759.204 2982.69 755.754 2991.89 755.754 3001.09 755.754 3009.14 759.204 3017.19 764.955 3024.09 770.706 3027.55 778.758 3027.55 789.109 3027.55 798.311 3024.09 807.512 3017.19 814.413 3009.14 821.314 3001.09 824.765 2991.89 824.765ZM2971.19 1409.06 2971.19 942.084 3012.59 942.084 3012.59 1409.06 2971.19 1409.06ZM3156.37 1326.24 3154.07 1326.24 3154.07 1624.14 3112.66 1624.14 3112.66 942.084 3154.07 942.084 3154.07 1038.7 3156.37 1038.7C3173.62 1004.19 3196.62 977.739 3227.68 959.336 3258.73 940.934 3293.24 931.732 3330.04 931.732 3389.85 931.732 3435.86 952.435 3469.22 992.692 3502.57 1034.1 3518.67 1089.31 3518.67 1159.47 3518.67 1237.68 3499.12 1300.94 3461.16 1349.25 3423.21 1397.56 3372.6 1421.71 3310.49 1421.71 3241.48 1420.56 3189.72 1389.51 3156.37 1326.24ZM3154.07 1152.57 3154.07 1211.23C3154.07 1258.38 3169.02 1298.64 3197.77 1332 3227.68 1365.35 3265.63 1382.6 3313.94 1382.6 3361.1 1382.6 3400.2 1361.9 3430.11 1321.64 3460.01 1280.24 3474.97 1227.33 3474.97 1160.62 3474.97 1101.96 3461.16 1055.95 3433.56 1021.45 3405.96 986.941 3370.3 969.688 3324.29 969.688 3270.23 969.688 3227.68 988.091 3197.77 1024.9 3167.87 1061.7 3154.07 1103.11 3154.07 1152.57ZM3772.86 1402.16C3751.01 1412.51 3730.31 1417.11 3711.9 1417.11 3642.89 1417.11 3608.39 1375.7 3608.39 1292.89L3608.39 981.19 3524.42 981.19 3524.42 943.234 3608.39 943.234 3608.39 821.314 3629.09 814.413 3649.79 807.512 3649.79 943.234 3772.86 943.234 3772.86 981.19 3649.79 981.19 3649.79 1289.44C3649.79 1321.64 3654.4 1344.65 3664.75 1359.6 3675.1 1374.55 3692.35 1381.45 3716.51 1381.45 3733.76 1381.45 3752.16 1375.7 3772.86 1364.2L3772.86 1402.16 3772.86 1402.16Z" fill="#007ACC" transform="matrix(1.00015 0 0 1 231 0)"/><rect x="333" y="619" width="3747" height="1076" fill="#FFFFFF"/><g clip-path="url(#clip1)"><g clip-path="url(#clip2)"><g clip-path="url(#clip3)"><path d="M405.884 283.41 321.873 283.41 321.873 192.314 288.471 192.314 288.471 283.41 205.472 283.41 205.472 315.8 288.471 315.8 288.471 406.896 321.873 406.896 321.873 315.8 405.884 315.8Z" fill="#CF7535" transform="matrix(1 0 0 1.00051 622.518 818)"/><path d="M236.85 432.201 161.949 432.201 161.949 350.214 133.608 350.214 133.608 432.201 58.7064 432.201 58.7064 457.505 133.608 457.505 133.608 538.479 161.949 538.479 161.949 457.505 236.85 457.505Z" fill="#AB2438" transform="matrix(1 0 0 1.00051 622.518 818)"/><path d="M552.65 140.693 476.736 140.693 476.736 58.7064 448.395 58.7064 448.395 140.693 373.494 140.693 373.494 164.985 448.395 164.985 448.395 245.96 476.736 245.96 476.736 164.985 552.65 164.985Z" fill="#698699" transform="matrix(1 0 0 1.00051 622.518 818)"/><path d="M369.445 523.297 317.824 523.297 317.824 465.603 293.532 465.603 293.532 523.297 242.923 523.297 242.923 544.552 293.532 544.552 293.532 602.247 317.824 602.247 317.824 544.552 369.445 544.552Z" fill="#5F658F" transform="matrix(1 0 0 1.00051 622.518 818)"/><path d="M236.85 140.693 160.937 140.693 160.937 58.7064 134.62 58.7064 134.62 140.693 58.7064 140.693 58.7064 163.973 134.62 163.973 134.62 245.96 160.937 245.96 160.937 163.973 236.85 163.973Z" fill="#D69035" transform="matrix(1 0 0 1.00051 622.518 818)"/><path d="M610.344 288.471 558.723 288.471 558.723 231.789 534.431 231.789 534.431 288.471 483.822 288.471 483.822 310.739 534.431 310.739 534.431 367.421 558.723 367.421 558.723 310.739 610.344 310.739Z" fill="#5F658F" transform="matrix(1 0 0 1.00051 622.518 818)"/><path d="M552.65 432.201 476.736 432.201 476.736 350.214 448.395 350.214 448.395 432.201 373.494 432.201 373.494 457.505 448.395 457.505 448.395 538.479 476.736 538.479 476.736 457.505 552.65 457.505Z" fill="#30467B" fill-rule="evenodd" transform="matrix(1 0 0 1.00051 622.518 818)"/><path d="M296.569 0 296.569 55.6699 245.96 55.6699 245.96 72.8769 296.569 72.8769 296.569 128.547 314.788 128.547 314.788 72.8769 365.397 72.8769 365.397 55.6699 314.788 55.6699 314.788 0Z" fill="#7D97A3" transform="matrix(1 0 0 1.00051 622.518 818)"/><path d="M119.437 290.495 68.8282 290.495 68.8282 235.838 50.609 235.838 50.609 290.495 0 290.495 0 308.715 50.609 307.703 50.609 363.372 68.8282 363.372 68.8282 307.703 119.437 307.703Z" fill="#7D97A3" transform="matrix(1 0 0 1.00051 622.518 818)"/><path d="M884.645 611.356C890.718 615.405 897.803 616.417 904.888 616.417 919.059 616.417 927.156 609.332 927.156 599.21 927.156 593.137 925.132 588.076 919.059 585.04 915.01 582.003 909.949 580.991 904.888 578.967 899.827 576.942 896.791 574.918 896.791 572.893 896.791 569.857 899.827 567.833 904.888 567.833 909.949 567.833 916.022 569.857 924.12 573.906L924.12 561.76C917.034 558.723 910.961 556.699 904.888 556.699 891.73 556.699 882.62 563.784 882.62 572.893 882.62 583.015 889.706 588.076 903.876 593.137 908.937 595.161 911.974 596.174 911.974 599.21 911.974 602.247 908.937 604.271 902.864 604.271 896.791 604.271 890.718 601.235 883.633 597.186L883.633 611.356Z" fill="#698699" fill-rule="evenodd" transform="matrix(1 0 0 1.00051 622.518 818)"/><path d="M1168.06 587.064C1168.06 595.161 1171.09 603.259 1177.16 608.32 1183.24 613.381 1190.32 616.417 1199.43 616.417 1208.54 616.417 1215.63 613.381 1221.7 608.32 1227.77 602.247 1230.81 595.161 1230.81 587.064 1230.81 577.954 1227.77 570.869 1221.7 565.808 1215.63 560.747 1208.54 557.711 1199.43 557.711 1190.32 557.711 1183.24 560.747 1177.16 565.808 1171.09 570.869 1168.06 578.967 1168.06 587.064M1183.24 587.064C1183.24 576.942 1190.32 568.845 1199.43 568.845 1208.54 568.845 1215.63 575.93 1215.63 587.064 1215.63 597.186 1208.54 604.271 1199.43 604.271 1189.31 604.271 1183.24 597.186 1183.24 587.064" fill="#698699" fill-rule="evenodd" transform="matrix(1 0 0 1.00051 622.518 818)"/><path d="M1486.89 615.405 1501.06 615.405 1501.06 592.125 1522.32 592.125 1522.32 580.991 1501.06 580.991 1501.06 568.845 1523.33 568.845 1523.33 557.711 1486.89 557.711Z" fill="#698699" fill-rule="evenodd" transform="matrix(1 0 0 1.00051 622.518 818)"/><path d="M1793.58 615.405 1808.76 615.405 1808.76 568.845 1826.98 568.845 1826.98 557.711 1774.35 557.711 1774.35 568.845 1793.58 568.845Z" fill="#698699" fill-rule="evenodd" transform="matrix(1 0 0 1.00051 622.518 818)"/><path d="M2083.07 616.417 2089.14 616.417 2102.3 579.979 2115.45 616.417 2121.53 616.417 2144.81 557.711 2129.63 557.711 2118.49 590.101 2107.36 557.711 2097.24 557.711 2086.1 589.088 2074.97 557.711 2059.78 557.711Z" fill="#698699" fill-rule="evenodd" transform="matrix(1 0 0 1.00051 622.518 818)"/><path d="M2362.43 615.405 2377.61 615.405 2382.67 604.271 2407.97 604.271 2412.02 615.405 2427.21 615.405 2404.94 557.711 2388.74 557.711 2362.43 615.405ZM2386.72 595.161 2395.83 572.893 2403.93 595.161 2386.72 595.161Z" fill="#698699" fill-rule="evenodd" transform="matrix(1 0 0 1.00051 622.518 818)"/><path d="M2661.02 615.405 2675.19 615.405 2675.19 592.125C2676.2 592.125 2676.2 592.125 2677.21 592.125 2683.29 592.125 2685.31 594.149 2687.34 599.21L2694.42 615.405 2710.62 615.405 2701.51 595.161C2699.48 591.113 2697.46 589.088 2694.42 588.076 2701.51 585.04 2704.54 579.979 2704.54 573.906 2704.54 562.772 2697.46 556.699 2681.26 556.699L2660.01 556.699 2660.01 615.405ZM2682.28 582.003 2675.19 582.003 2675.19 568.845 2682.28 568.845C2687.34 568.845 2690.37 570.869 2690.37 575.93 2690.37 579.979 2687.34 582.003 2682.28 582.003" fill="#698699" fill-rule="evenodd" transform="matrix(1 0 0 1.00051 622.518 818)"/><path d="M2950.5 615.405 2989.98 615.405 2989.98 605.283 2964.67 605.283 2964.67 591.113 2987.95 591.113 2987.95 580.991 2964.67 580.991 2964.67 568.845 2988.97 568.845 2988.97 557.711 2950.5 557.711Z" fill="#698699" fill-rule="evenodd" transform="matrix(1 0 0 1.00051 622.518 818)"/><path d="M1623.54 253.045C1643.78 244.947 1660.99 242.923 1672.12 242.923 1728.8 242.923 1766.25 282.398 1766.25 344.141 1766.25 408.92 1725.77 446.371 1655.93 446.371 1631.63 446.371 1607.34 441.31 1582.04 433.213L1581.02 148.79 1623.54 148.79 1623.54 253.045ZM1659.97 407.908C1699.45 407.908 1721.72 385.64 1721.72 345.153 1721.72 305.678 1699.45 281.386 1664.02 281.386 1648.84 281.386 1633.66 286.447 1623.54 291.508L1623.54 399.811C1635.68 404.872 1647.83 407.908 1659.97 407.908" fill="#30467B" fill-rule="evenodd" transform="matrix(1 0 0 1.00051 622.518 818)"/><path d="M1941.36 108.303 1982.86 108.303 1982.86 481.797 1941.36 481.797Z" fill="#30467B" fill-rule="evenodd" transform="matrix(1 0 0 1.00051 622.518 818)"/><path d="M2213.64 321.873 2309.79 321.873C2308.78 296.569 2294.61 283.41 2270.32 281.386 2246.03 280.374 2221.73 295.556 2213.64 321.873M2261.21 447.383C2196.43 441.31 2166.06 395.762 2167.08 342.117 2169.1 284.422 2206.55 242.923 2263.23 242.923 2322.95 242.923 2357.37 287.459 2355.34 352.238L2211.61 352.238C2214.65 388.677 2236.92 405.884 2266.27 407.908 2290.56 409.933 2325.99 403.86 2345.22 392.726L2345.22 432.201C2319.92 444.347 2293.6 450.42 2261.21 447.383" fill="#30467B" fill-rule="evenodd" transform="matrix(1 0 0 1.00051 622.518 818)"/><path d="M2974.8 413.981C3001.11 413.981 3019.33 400.823 3019.33 370.458L3019.33 246.972 3061.84 246.972 3061.84 375.519C3061.84 419.042 3028.44 445.359 2974.8 445.359 2922.16 445.359 2888.76 419.042 2888.76 375.519L2888.76 246.972 2931.27 246.972 2931.27 370.458C2930.26 400.823 2948.48 413.981 2974.8 413.981" fill="#30467B" fill-rule="evenodd" transform="matrix(1 0 0 1.00051 622.518 818)"/><path d="M1302.67 446.371C1231.82 446.371 1192.35 408.92 1192.35 344.141 1192.35 282.398 1230.81 242.923 1286.48 242.923 1305.71 242.923 1320.89 246.972 1335.06 256.081L1335.06 241.911 1377.58 241.911 1376.56 433.213C1359.36 440.298 1330 446.371 1302.67 446.371M1298.63 407.908C1307.74 407.908 1319.88 406.896 1335.06 402.847L1336.08 294.544C1322.92 285.435 1309.76 281.386 1295.59 281.386 1260.16 281.386 1237.9 304.666 1237.9 345.153 1236.88 384.628 1259.15 407.908 1298.63 407.908" fill="#30467B" fill-rule="evenodd" transform="matrix(1 0 0 1.00051 622.518 818)"/><path d="M2635.72 446.371C2564.86 446.371 2525.39 408.92 2525.39 344.141 2525.39 282.398 2563.85 242.923 2619.52 242.923 2638.75 242.923 2653.93 246.972 2668.1 256.081L2668.1 241.911 2710.62 241.911 2709.6 433.213C2691.39 440.298 2663.04 446.371 2635.72 446.371M2631.67 407.908C2639.76 407.908 2652.92 406.896 2668.1 402.847L2669.12 294.544C2655.96 285.435 2642.8 281.386 2628.63 281.386 2593.2 281.386 2570.94 304.666 2570.94 345.153 2569.92 384.628 2592.19 407.908 2631.67 407.908" fill="#30467B" fill-rule="evenodd" transform="matrix(1 0 0 1.00051 622.518 818)"/><path d="M878.572 161.949 920.071 161.949 920.071 280.374 1033.44 280.374 1033.44 318.837 920.071 318.837 920.071 447.383 878.572 447.383 878.572 318.837 766.22 318.837 766.22 280.374 878.572 280.374Z" fill="#30467B" transform="matrix(1 0 0 1.00051 622.518 818)"/><path d="M3130.67 244.947C3144.84 244.947 3154.96 256.081 3154.96 270.252 3154.96 284.422 3143.83 295.556 3130.67 295.556 3116.5 295.556 3105.37 284.422 3105.37 270.252 3105.37 256.081 3116.5 244.947 3130.67 244.947L3130.67 244.947ZM3130.67 248.996C3119.54 248.996 3110.43 258.106 3110.43 270.252 3110.43 282.398 3119.54 291.508 3130.67 291.508 3141.8 291.508 3150.91 282.398 3150.91 270.252 3150.91 258.106 3141.8 248.996 3130.67 248.996L3130.67 248.996ZM3125.61 284.422 3121.56 284.422 3121.56 256.081C3123.59 256.081 3126.62 255.069 3129.66 255.069 3133.71 255.069 3136.74 256.081 3138.77 257.094 3140.79 258.106 3141.8 260.13 3141.8 263.167 3141.8 267.215 3139.78 269.24 3136.74 270.252L3136.74 270.252C3138.77 270.252 3140.79 273.288 3141.8 277.337 3142.82 281.386 3142.82 283.41 3143.83 284.422L3138.77 284.422C3137.76 283.41 3137.76 281.386 3136.74 277.337 3135.73 273.288 3134.72 272.276 3130.67 272.276L3127.63 272.276 3127.63 284.422ZM3125.61 269.24 3128.65 269.24C3132.7 269.24 3135.73 268.228 3135.73 264.179 3135.73 262.154 3133.71 259.118 3128.65 259.118 3127.63 259.118 3126.62 259.118 3125.61 259.118L3125.61 269.24Z" fill="#30467B" transform="matrix(1 0 0 1.00051 622.518 818)"/></g></g></g></g></svg>